# This file uses centimeters as units for non-parametric coordinates.

mtllib Card.mtl
g default
v -1.746630 2.599104 0.005372
v -1.766658 2.588899 0.005372
v -1.782552 2.573005 0.005372
v -1.792756 2.552977 0.005372
v -1.796273 2.530776 0.005372
v -1.724429 2.602620 0.005372
v -1.796273 2.530776 -0.005372
v -1.792756 2.552977 -0.005372
v -1.782552 2.573005 -0.005372
v -1.766658 2.588899 -0.005372
v -1.746630 2.599104 -0.005372
v -1.724429 2.602620 -0.005372
v 1.792756 2.552977 0.005372
v 1.782552 2.573005 0.005372
v 1.766658 2.588899 0.005372
v 1.746630 2.599104 0.005372
v 1.724429 2.602620 0.005372
v 1.796273 2.530776 0.005372
v 1.796273 2.530776 -0.005372
v 1.724429 2.602620 -0.005372
v 1.746630 2.599104 -0.005372
v 1.766658 2.588899 -0.005372
v 1.782552 2.573005 -0.005372
v 1.792756 2.552977 -0.005372
v -1.792756 -2.552977 0.005372
v -1.782552 -2.573005 0.005372
v -1.766658 -2.588899 0.005372
v -1.746630 -2.599104 0.005372
v -1.724429 -2.602620 0.005372
v -1.796273 -2.530776 0.005372
v -1.746630 -2.599104 -0.005372
v -1.766658 -2.588899 -0.005372
v -1.782552 -2.573005 -0.005372
v -1.792756 -2.552977 -0.005372
v -1.796273 -2.530776 -0.005372
v -1.724429 -2.602620 -0.005372
v 1.746630 -2.599104 0.005372
v 1.766658 -2.588899 0.005372
v 1.782552 -2.573005 0.005372
v 1.792756 -2.552977 0.005372
v 1.796273 -2.530776 0.005372
v 1.724429 -2.602620 0.005372
v 1.792756 -2.552977 -0.005372
v 1.782552 -2.573005 -0.005372
v 1.766658 -2.588899 -0.005372
v 1.746630 -2.599104 -0.005372
v 1.724429 -2.602620 -0.005372
v 1.796273 -2.530776 -0.005372
vt 0.622200 0.664741
vt 0.622200 0.335259
vt 0.942588 0.335259
vt 0.942588 0.664741
vt 0.620795 0.664741
vt 0.620795 0.335259
vt 0.943993 0.664741
vt 0.943993 0.335259
vt 0.619527 0.664741
vt 0.619527 0.335259
vt 0.945260 0.664741
vt 0.945260 0.335259
vt 0.618521 0.664741
vt 0.618521 0.335259
vt 0.946267 0.664741
vt 0.946267 0.335259
vt 0.288638 0.664741
vt 0.288638 0.335259
vt 0.609025 0.335259
vt 0.609025 0.664741
vt 0.287233 0.335259
vt 0.287233 0.664741
vt 0.610430 0.335259
vt 0.610430 0.664741
vt 0.285965 0.335259
vt 0.285965 0.664741
vt 0.611698 0.335259
vt 0.611698 0.664741
vt 0.284959 0.335259
vt 0.284959 0.664741
vt 0.612704 0.335259
vt 0.612704 0.664741
vt 0.005762 0.331474
vt 0.005762 0.001992
vt 0.322066 0.001992
vt 0.322066 0.331474
vt 0.003726 0.001992
vt 0.003726 0.331474
vt 0.324102 0.001992
vt 0.324102 0.331474
vt 0.001889 0.001992
vt 0.001889 0.331474
vt 0.325939 0.001992
vt 0.325939 0.331474
vt 0.336722 0.331474
vt 0.336722 0.001992
vt 0.653027 0.001992
vt 0.653027 0.331474
vt 0.334686 0.331474
vt 0.334686 0.001992
vt 0.655063 0.331474
vt 0.655063 0.001992
vt 0.332849 0.331474
vt 0.332849 0.001992
vt 0.656899 0.331474
vt 0.656899 0.001992
vt 0.326818 0.668748
vt 0.328655 0.669394
vt 0.330113 0.670400
vt 0.331049 0.671668
vt 0.331371 0.673073
vt 0.331371 0.993461
vt 0.331049 0.994866
vt 0.330113 0.996134
vt 0.328655 0.997140
vt 0.326818 0.997786
vt 0.324782 0.998008
vt 0.008478 0.998008
vt 0.006442 0.997786
vt 0.004605 0.997140
vt 0.003147 0.996134
vt 0.002211 0.994866
vt 0.001889 0.993461
vt 0.001889 0.673073
vt 0.002211 0.671668
vt 0.003147 0.670400
vt 0.004605 0.669394
vt 0.006442 0.668748
vt 0.008478 0.668526
vt 0.324782 0.668526
vt 0.664733 0.668848
vt 0.666000 0.669784
vt 0.667006 0.671242
vt 0.667652 0.673079
vt 0.667875 0.675115
vt 0.667875 0.991419
vt 0.667652 0.993455
vt 0.667006 0.995292
vt 0.666000 0.996750
vt 0.664733 0.997686
vt 0.663328 0.998008
vt 0.342940 0.998008
vt 0.341535 0.997686
vt 0.340267 0.996750
vt 0.339262 0.995292
vt 0.338615 0.993455
vt 0.338393 0.991419
vt 0.338393 0.675115
vt 0.338615 0.673079
vt 0.339262 0.671242
vt 0.340267 0.669784
vt 0.341535 0.668848
vt 0.342940 0.668526
vt 0.663328 0.668526
vn -0.001013 1.000000 0.000000
vn -0.001013 1.000000 0.000000
vn 0.001013 1.000000 0.000000
vn 0.001013 1.000000 0.000000
vn -0.001013 -1.000000 0.000000
vn -0.001013 -1.000000 0.000000
vn 0.001013 -1.000000 0.000000
vn 0.001013 -1.000000 0.000000
vn 1.000000 -0.000692 0.000000
vn 1.000000 -0.000692 0.000000
vn 1.000000 0.000692 0.000000
vn 1.000000 0.000692 0.000000
vn -1.000000 -0.000692 0.000000
vn -1.000000 -0.000692 0.000000
vn -1.000000 0.000692 0.000000
vn -1.000000 0.000692 0.000000
vn -0.951056 0.309018 0.000000
vn -0.951056 0.309018 0.000000
vn -0.809017 0.587785 0.000000
vn -0.809017 0.587785 0.000000
vn -0.587785 0.809017 0.000000
vn -0.587785 0.809017 0.000000
vn -0.309017 0.951057 0.000000
vn -0.309017 0.951057 0.000000
vn 0.309017 0.951057 0.000000
vn 0.309017 0.951057 0.000000
vn 0.587785 0.809017 0.000000
vn 0.587785 0.809017 0.000000
vn 0.809017 0.587785 0.000000
vn 0.809017 0.587785 0.000000
vn 0.951056 0.309018 0.000000
vn 0.951056 0.309018 0.000000
vn -0.309017 -0.951057 0.000000
vn -0.309017 -0.951057 0.000000
vn -0.587785 -0.809017 0.000000
vn -0.587785 -0.809017 0.000000
vn -0.809017 -0.587785 0.000000
vn -0.809017 -0.587785 0.000000
vn -0.951056 -0.309018 0.000000
vn -0.951056 -0.309018 0.000000
vn 0.951056 -0.309018 0.000000
vn 0.951056 -0.309018 0.000000
vn 0.809017 -0.587785 0.000000
vn 0.809017 -0.587785 0.000000
vn 0.587785 -0.809017 0.000000
vn 0.587785 -0.809017 0.000000
vn 0.309017 -0.951057 0.000000
vn 0.309017 -0.951057 0.000000
vn -0.000000 0.000000 1.000000
vn -0.000000 0.000000 1.000000
vn -0.000000 0.000000 1.000000
vn -0.000000 0.000000 1.000000
vn -0.000000 0.000000 1.000000
vn -0.000000 0.000000 1.000000
vn -0.000000 0.000000 1.000000
vn -0.000000 0.000000 1.000000
vn -0.000000 0.000000 1.000000
vn -0.000000 0.000000 1.000000
vn -0.000000 0.000000 1.000000
vn -0.000000 0.000000 1.000000
vn -0.000000 0.000000 1.000000
vn -0.000000 0.000000 1.000000
vn -0.000000 0.000000 1.000000
vn -0.000000 0.000000 1.000000
vn -0.000000 0.000000 1.000000
vn -0.000000 0.000000 1.000000
vn -0.000000 0.000000 1.000000
vn -0.000000 0.000000 1.000000
vn -0.000000 0.000000 1.000000
vn -0.000000 0.000000 1.000000
vn -0.000000 0.000000 1.000000
vn -0.000000 0.000000 1.000000
vn 0.000000 0.000000 -1.000000
vn 0.000000 0.000000 -1.000000
vn 0.000000 0.000000 -1.000000
vn 0.000000 0.000000 -1.000000
vn 0.000000 0.000000 -1.000000
vn 0.000000 0.000000 -1.000000
vn 0.000000 0.000000 -1.000000
vn 0.000000 0.000000 -1.000000
vn 0.000000 0.000000 -1.000000
vn 0.000000 0.000000 -1.000000
vn 0.000000 0.000000 -1.000000
vn 0.000000 0.000000 -1.000000
vn 0.000000 0.000000 -1.000000
vn 0.000000 0.000000 -1.000000
vn 0.000000 0.000000 -1.000000
vn 0.000000 0.000000 -1.000000
vn 0.000000 0.000000 -1.000000
vn 0.000000 0.000000 -1.000000
vn 0.000000 0.000000 -1.000000
vn 0.000000 0.000000 -1.000000
vn 0.000000 0.000000 -1.000000
vn 0.000000 0.000000 -1.000000
vn 0.000000 0.000000 -1.000000
vn 0.000000 0.000000 -1.000000
s 1
g pCube1
usemtl aiStandardSurface1SG
f 12/33/1 6/34/2 17/35/3 20/36/4
f 29/45/5 36/46/6 47/47/7 42/48/8
f 41/1/9 48/2/10 19/3/11 18/4/12
f 35/17/13 30/18/14 5/19/15 7/20/16
f 5/19/15 4/23/17 8/24/18 7/20/16
f 4/23/17 3/27/19 9/28/20 8/24/18
f 3/27/19 2/31/21 10/32/22 9/28/20
f 2/41/21 1/37/23 11/38/24 10/42/22
f 1/37/23 6/34/2 12/33/1 11/38/24
f 17/35/3 16/39/25 21/40/26 20/36/4
f 16/39/25 15/43/27 22/44/28 21/40/26
f 15/15/27 14/11/29 23/12/30 22/16/28
f 14/11/29 13/7/31 24/8/32 23/12/30
f 13/7/31 18/4/12 19/3/11 24/8/32
f 29/45/5 28/49/33 31/50/34 36/46/6
f 28/49/33 27/53/35 32/54/36 31/50/34
f 27/29/35 26/25/37 33/26/38 32/30/36
f 26/25/37 25/21/39 34/22/40 33/26/38
f 25/21/39 30/18/14 35/17/13 34/22/40
f 41/1/9 40/5/41 43/6/42 48/2/10
f 40/5/41 39/9/43 44/10/44 43/6/42
f 39/9/43 38/13/45 45/14/46 44/10/44
f 38/55/45 37/51/47 46/52/48 45/56/46
f 37/51/47 42/48/8 47/47/7 46/52/48
s off
f 37/57/49 38/58/50 39/59/51 40/60/52 41/61/53 18/62/54 13/63/55 14/64/56 15/65/57 16/66/58 17/67/59 6/68/60 1/69/61 2/70/62 3/71/63 4/72/64 5/73/65 30/74/66 25/75/67 26/76/68 27/77/69 28/78/70 29/79/71 42/80/72
f 43/81/73 44/82/74 45/83/75 46/84/76 47/85/77 36/86/78 31/87/79 32/88/80 33/89/81 34/90/82 35/91/83 7/92/84 8/93/85 9/94/86 10/95/87 11/96/88 12/97/89 20/98/90 21/99/91 22/100/92 23/101/93 24/102/94 19/103/95 48/104/96
